<?xml version="1.0" encoding="iso-8859-1"?>
<!-- Generator: Adobe Illustrator 19.0.0, SVG Export Plug-In . SVG Version: 6.00 Build 0)  -->
<svg version="1.1" id="Layer_1" xmlns="http://www.w3.org/2000/svg" xmlns:xlink="http://www.w3.org/1999/xlink" x="0px" y="0px"
	 viewBox="0 0 491.52 491.52" style="enable-background:new 0 0 491.52 491.52;" xml:space="preserve">
<g>
	<g>
		<path d="M491.52,419.562v-358.4H387.864c15.342-24.978,23.402-46.77,13.596-56.58c-17.261-17.269-71.529,20.637-115.165,56.58H0
			v358.4h153.6v51.2h-40.96v20.48h266.24v-20.48h-40.96v-51.2H491.52z M385.62,20.422c-4.12,20.505-54.57,90.875-108.66,144.96
			c-10.423,10.423-19.901,19.042-28.507,26.038l-33.829-33.829c6.996-8.605,15.614-18.083,26.036-28.504
			C294.75,74.997,365.13,24.542,385.62,20.422z M231.687,203.615c-4.861,3.037-9.343,5.379-13.338,6.842
			c-8.997,3.319-13.956,2.044-17.997-1.146c-1.492-1.876-3.116-3.607-4.869-5.195c-2.278-3.786-2.771-8.605,0.097-16.424
			c1.465-3.994,3.809-8.476,6.847-13.338L231.687,203.615z M20.48,81.642h241.731c-20.848,18.27-35.575,32.508-36.031,32.965
			c-27.21,27.205-43.51,48.805-49.82,66.035c-1.656,4.516-2.609,8.823-2.984,12.949c-3.83-0.571-7.738-0.73-11.666-0.139
			c-36.99,5.565-42.81,47.38-43.04,49.16c-3.17,24.655-19.96,35.215-27.03,38.61c-4.28,2.055-6.85,6.625-6.39,11.375
			c0.47,4.81,3.91,8.85,8.57,10.055c11.62,3.015,22.17,4.325,31.75,4.325c41.8-0.005,64.93-24.94,75.87-42.045
			c6.469-10.117,9.294-21.274,8.297-32.122c4.933-0.111,10.151-1.099,15.663-3.122c17.23-6.32,38.83-22.615,66.04-49.825
			c0.842-0.839,49.271-50.964,82.819-98.22h96.781v256H20.48V81.642z M184.18,253.897c-10.79,16.885-30.41,34.75-64.81,32.35
			c8.74-8.74,17.15-21.865,19.61-40.975c0.16-1.155,4.13-28.31,25.78-31.57c5.477-0.856,11.003,0.85,15.496,4.344
			c1.085,1.418,2.281,2.798,3.614,4.131c0.416,0.416,0.878,0.701,1.302,1.094c1.122,1.617,2.132,3.349,2.878,5.286
			C190.93,236.132,189.49,245.602,184.18,253.897z M317.44,470.762H174.08v-51.2h143.36V470.762z M20.48,399.082v-40.96h450.56
			v40.96H20.48z"/>
	</g>
</g>
<g>
</g>
<g>
</g>
<g>
</g>
<g>
</g>
<g>
</g>
<g>
</g>
<g>
</g>
<g>
</g>
<g>
</g>
<g>
</g>
<g>
</g>
<g>
</g>
<g>
</g>
<g>
</g>
<g>
</g>
</svg>
