<?xml version="1.0" encoding="iso-8859-1"?>
<!-- Generator: Adobe Illustrator 19.0.0, SVG Export Plug-In . SVG Version: 6.00 Build 0)  -->
<svg version="1.1" id="Layer_1" xmlns="http://www.w3.org/2000/svg" xmlns:xlink="http://www.w3.org/1999/xlink" x="0px" y="0px"
	 viewBox="0 0 491.52 491.52" style="enable-background:new 0 0 491.52 491.52;" xml:space="preserve">
<g>
	<g>
		<path d="M488.52,74.68L416.84,3c-4-4-10.48-4-14.48,0l-71.68,71.68c-2.93,2.93-3.805,7.33-2.22,11.16
			c1.585,3.825,5.32,6.32,9.46,6.32h30.72v389.12c0,5.655,4.585,10.24,10.24,10.24h61.44c5.655,0,10.24-4.585,10.24-10.24V92.16
			h30.72c4.14,0,7.875-2.495,9.46-6.32C492.325,82.01,491.45,77.61,488.52,74.68z M440.32,71.68c-5.655,0-10.24,4.585-10.24,10.24
			v389.12h-40.96V81.92c0-5.655-4.585-10.24-10.24-10.24h-16.24l46.96-46.96l46.96,46.96H440.32z"/>
	</g>
</g>
<g>
	<g>
		<path d="M324.68,187.32L253,115.64c-4-4-10.48-4-14.48,0l-71.68,71.68c-2.93,2.93-3.805,7.33-2.22,11.16
			c1.585,3.825,5.32,6.32,9.46,6.32h30.72v276.48c0,5.655,4.585,10.24,10.24,10.24h61.44c5.655,0,10.24-4.585,10.24-10.24V204.8
			h30.72c4.14,0,7.875-2.495,9.46-6.32C328.485,194.65,327.61,190.25,324.68,187.32z M276.48,184.32L276.48,184.32
			c-5.655,0-10.24,4.585-10.24,10.24v276.48h-40.96V194.56c0-5.655-4.585-10.24-10.24-10.24H198.8l46.96-46.96l46.96,46.96H276.48z"
			/>
	</g>
</g>
<g>
	<g>
		<path d="M160.84,289.72l-71.68-71.68c-4-4-10.48-4-14.48,0L3,289.72c-2.93,2.93-3.805,7.33-2.22,11.16
			c1.585,3.825,5.32,6.32,9.46,6.32h30.72v174.08c0,5.655,4.585,10.24,10.24,10.24h61.44c5.655,0,10.24-4.585,10.24-10.24V307.2
			h30.72c4.14,0,7.875-2.495,9.46-6.32C164.645,297.05,163.77,292.65,160.84,289.72z M112.64,286.72
			c-5.655,0-10.24,4.585-10.24,10.24v174.08H61.44V296.96c0-5.655-4.585-10.24-10.24-10.24H34.96l46.96-46.96l46.96,46.96H112.64z"
			/>
	</g>
</g>
<g>
</g>
<g>
</g>
<g>
</g>
<g>
</g>
<g>
</g>
<g>
</g>
<g>
</g>
<g>
</g>
<g>
</g>
<g>
</g>
<g>
</g>
<g>
</g>
<g>
</g>
<g>
</g>
<g>
</g>
</svg>
