<?xml version="1.0" encoding="iso-8859-1"?>
<!-- Generator: Adobe Illustrator 19.0.0, SVG Export Plug-In . SVG Version: 6.00 Build 0)  -->
<svg version="1.1" id="Layer_1" xmlns="http://www.w3.org/2000/svg" xmlns:xlink="http://www.w3.org/1999/xlink" x="0px" y="0px"
	 viewBox="0 0 321.493 321.493" style="enable-background:new 0 0 321.493 321.493;" xml:space="preserve">
<g>
	<g>
		<path d="M321.493,0.16H0v254.613h76.267L53.44,275.36l-0.213,0.213c-2.88,2.88-2.88,7.467-0.107,10.24
			c1.813,1.813,3.947,2.24,5.333,2.24h59.413c0.853,1.813,1.707,3.52,2.56,5.227l1.92,3.733h9.173v15.467h13.867v-15.467h30.72
			v15.467h13.867v-15.467h8.96l1.92-3.733c0.853-1.707,1.707-3.413,2.56-5.227h59.733c1.387,0,3.413-0.427,5.333-2.347
			c2.88-2.773,2.773-7.36-0.107-10.24l-23.04-20.693h76.16L321.493,0.16z M75.413,274.293l14.187-12.8l16.747-15.04
			c1.387,9.92,3.413,19.307,6.187,27.84H75.413z M190.507,283.147h-59.733c-8-16.96-12.373-39.68-12.373-64.533
			c0-25.707,10.773-50.24,22.08-69.013h40.213c11.307,18.667,22.187,43.307,22.187,69.013
			C202.88,243.467,198.507,266.187,190.507,283.147z M149.653,135.733c4.16-5.76,8-10.56,10.987-14.08
			c2.88,3.307,6.72,8.107,10.987,14.08H149.653z M246.08,274.187h-37.333c1.92-6.08,3.52-12.587,4.8-19.413h10.88L246.08,274.187z
			 M307.627,240.907h-77.76l-13.333-12.053c0.213-3.413,0.213-6.827,0.213-10.24c0-56.853-45.547-106.453-50.773-111.893
			l-0.107-0.107c-1.387-1.493-3.307-2.24-5.227-2.24c-1.92,0-3.84,0.853-5.227,2.24l-0.213,0.213
			c-8.427,9.067-50.667,57.387-50.667,111.787c0,3.52,0.107,7.147,0.213,10.56l-13.013,11.733H13.867V67.467h293.76V240.907z
			 M307.627,53.6H13.867V14.027h293.76V53.6z"/>
	</g>
</g>
<g>
	<g>
		<rect x="281.067" y="26.933" width="13.44" height="13.867"/>
	</g>
</g>
<g>
	<g>
		<rect x="254.4" y="26.933" width="13.333" height="13.867"/>
	</g>
</g>
<g>
	<g>
		<rect x="227.627" y="26.933" width="13.333" height="13.867"/>
	</g>
</g>
<g>
	<g>
		<rect x="33.707" y="26.933" width="173.867" height="13.867"/>
	</g>
</g>
<g>
	<g>
		<rect x="153.813" y="299.04" width="13.867" height="22.293"/>
	</g>
</g>
<g>
	<g>
		<path d="M160.747,180.533c-13.653,0-24.747,11.093-24.747,24.747c0,13.653,11.093,24.747,24.747,24.747
			s24.747-11.093,24.747-24.747C185.493,191.627,174.4,180.533,160.747,180.533z M160.747,216.16c-5.973,0-10.88-4.907-10.88-10.88
			s4.907-10.88,10.88-10.88s10.88,4.907,10.88,10.88S166.72,216.16,160.747,216.16z"/>
	</g>
</g>
<g>
</g>
<g>
</g>
<g>
</g>
<g>
</g>
<g>
</g>
<g>
</g>
<g>
</g>
<g>
</g>
<g>
</g>
<g>
</g>
<g>
</g>
<g>
</g>
<g>
</g>
<g>
</g>
<g>
</g>
</svg>
